<?xml version="1.0" encoding="utf-8"?>
<!-- Generator: Adobe Illustrator 21.1.0, SVG Export Plug-In . SVG Version: 6.00 Build 0)  -->
<svg version="1.1" id="Layer_1" xmlns="http://www.w3.org/2000/svg" xmlns:xlink="http://www.w3.org/1999/xlink" x="0px" y="0px"
	 viewBox="0 0 135 39" style="enable-background:new 0 0 135 39;" xml:space="preserve">
<style type="text/css">
	.st0{fill:#FFFFFF;}
</style>
<g>
	<g>
		<path class="st0" d="M19.1,34.8h-6.8c-0.4,0-0.8-0.3-0.8-0.8V11.6c0-0.4-0.3-0.8-0.8-0.8h-6C4.4,10.8,4,10.5,4,10V4.8
			C4,4.3,4.4,4,4.8,4h21.8c0.4,0,0.8,0.3,0.8,0.8V10c0,0.4-0.3,0.8-0.8,0.8h-6c-0.4,0-0.8,0.3-0.8,0.8V34
			C19.9,34.5,19.5,34.8,19.1,34.8z"/>
		<path class="st0" d="M37.8,24.4V34c0,0.4-0.3,0.8-0.8,0.8h-6.8c-0.4,0-0.8-0.3-0.8-0.8V4.8c0-0.4,0.3-0.8,0.8-0.8h9.3
			c8.4,0,12.6,3,12.6,9.1c0,3.3-1.5,5.9-4.5,7.9c-0.4,0.2-0.5,0.7-0.2,1.1l7.7,11.6c0.3,0.5,0,1.2-0.6,1.2h-7.6
			c-0.3,0-0.5-0.1-0.7-0.4L40.1,24c-0.1-0.2-0.4-0.4-0.7-0.4h-0.9C38.1,23.6,37.8,23.9,37.8,24.4z M37.8,16.6c0,0.4,0.3,0.8,0.8,0.8
			h0.8c2.9,0,4.4-1.3,4.4-3.9c0-2.1-1.4-3.2-4.3-3.2h-0.9c-0.4,0-0.8,0.3-0.8,0.8V16.6z"/>
		<path class="st0" d="M69.3,34.8h-6.8c-0.4,0-0.8-0.3-0.8-0.8V11.6c0-0.4-0.3-0.8-0.8-0.8h-6c-0.4,0-0.8-0.3-0.8-0.8V4.8
			C54.2,4.3,54.6,4,55,4h21.8c0.4,0,0.8,0.3,0.8,0.8V10c0,0.4-0.3,0.8-0.8,0.8h-6c-0.4,0-0.8,0.3-0.8,0.8V34
			C70.1,34.5,69.7,34.8,69.3,34.8z"/>
	</g>
	<path class="st0" d="M93.8,34.8h-3.6V7.2h-9.8V4h23.1v3.2h-9.8V34.8z"/>
	<path class="st0" d="M127.7,4h3.9l-11.1,30.8h-3.5L105.9,4h3.8l7.1,19.9c0.8,2.3,1.5,4.5,1.9,6.7c0.5-2.3,1.2-4.5,2-6.8L127.7,4z"
		/>
</g>
</svg>
