<?xml version="1.0" encoding="utf-8"?>
<!-- Generator: Adobe Illustrator 21.1.0, SVG Export Plug-In . SVG Version: 6.00 Build 0)  -->
<svg version="1.1"
	 id="svg2985" xmlns:cc="http://creativecommons.org/ns#" xmlns:dc="http://purl.org/dc/elements/1.1/" xmlns:inkscape="http://www.inkscape.org/namespaces/inkscape" xmlns:rdf="http://www.w3.org/1999/02/22-rdf-syntax-ns#" xmlns:sodipodi="http://sodipodi.sourceforge.net/DTD/sodipodi-0.dtd" xmlns:svg="http://www.w3.org/2000/svg"
	 xmlns="http://www.w3.org/2000/svg" xmlns:xlink="http://www.w3.org/1999/xlink" x="0px" y="0px" viewBox="0 0 564.5 439.3"
	 style="enable-background:new 0 0 564.5 439.3;" xml:space="preserve">
<style type="text/css">
	.st0{fill:#F79F1A;}
	.st1{fill:#EA001B;}
	.st2{fill:#FF5F01;}
	.st3{fill:#FFFFFF;}
</style>
<g id="g3125" transform="matrix(1.2152823,0,0,1.2152823,-67.025868,-37.711623)">
	<g id="g3115">
		<g id="g3110">
			<path id="path2997" class="st0" d="M519.7,175c0,79.5-64.3,143.9-143.6,143.9S232.4,254.4,232.4,175S296.7,31,376,31
				S519.7,95.5,519.7,175L519.7,175z"/>
			<path id="path2995" class="st1" d="M342.4,175c0,79.5-64.3,143.9-143.6,143.9S55.2,254.4,55.2,175S119.5,31,198.8,31
				S342.4,95.5,342.4,175L342.4,175z"/>
			<path id="path2999" class="st2" d="M287.4,61.7c-33.5,26.3-55,67.3-55,113.3s21.5,87,55,113.3c33.5-26.3,55-67.3,55-113.3
				S320.9,88,287.4,61.7z"/>
		</g>
		<g id="g3043" transform="matrix(1.2704171,0,0,1.2704171,507.53053,240.70315)">
			<g id="text3045">
				<path id="path3057" class="st0" d="M9.3,8.4v-4H8.3L7.1,7.1L5.9,4.3H4.8v4h0.7v-3l1.1,2.6h0.8l1.1-2.6v3.1H9.3z M2.6,8.4V5H4
					V4.3H0.6V5h1.4v3.4H2.6z"/>
			</g>
			<g id="text3047">
			</g>
		</g>
	</g>
	<g id="g3093">
		<g id="g3081">
			<path id="path3006" class="st3" d="M87.1,390.1H79v-38h8v4.6c0,0,7-5.7,11.2-5.6c8.1,0.1,12.9,7,12.9,7s3.9-7,12.8-7
				c13.1,0,15,12,15,12v26.9h-7.8v-23.7c0,0,0-7.2-8.5-7.2c-8.8,0-9.6,7.2-9.6,7.2v23.7h-8.2v-23.8c0,0-0.8-7.5-8.2-7.5
				c-9.6,0-9.7,7.7-9.7,7.7L87.1,390.1z"/>
			<path id="path3008" class="st3" d="M335,351.1c-4.2-0.1-11.2,5.6-11.2,5.6V352h-8v38h8.2l-0.2-23.8c0,0,0.2-7.7,9.8-7.7
				c1.8,0,3.2,0.4,4.2,1.1v0l2.7-7.4C338.9,351.6,337,351.1,335,351.1z"/>
			<path id="path3013" class="st3" d="M449.8,351.1c-4.2-0.1-11.2,5.6-11.2,5.6V352h-8v38h8.2l-0.2-23.8c0,0,0.2-7.7,9.8-7.7
				c1.8,0,3.2,0.4,4.2,1.1v0l2.7-7.4C453.7,351.6,451.9,351.1,449.8,351.1L449.8,351.1z"/>
			<path id="path3015" class="st3" d="M165.3,350.9c-12.2,0-18.7,11-18.7,20.1c0,9.4,7.3,20.2,19,20.2c6.8,0,12.4-5,12.4-5l0,3.9h8
				V352H178v4.8C178,356.8,172.7,350.9,165.3,350.9L165.3,350.9z M166.8,358.7c6.6,0,11.9,5.7,11.9,12.7s-5.3,12.7-11.9,12.7
				s-11.8-5.7-11.8-12.7S160.3,358.7,166.8,358.7z"/>
			<path id="path3020" class="st3" d="M399.2,350.9c-12.2,0-18.7,11-18.7,20.1c0,9.4,7.3,20.2,19,20.2c6.8,0,12.4-5,12.4-5l0,3.9h8
				V352H412v4.8C412,356.8,406.7,350.9,399.2,350.9L399.2,350.9z M400.8,358.7c6.6,0,11.9,5.7,11.9,12.7s-5.3,12.7-11.9,12.7
				c-6.6,0-11.8-5.7-11.8-12.7S394.3,358.7,400.8,358.7z"/>
			<path id="path3022" class="st3" d="M476.3,350.9c-12.2,0-18.7,11-18.7,20.1c0,9.4,7.3,20.2,19,20.2c6.8,0,12.4-5,12.4-5l0,3.9h8
				V337H489v19.8C489,356.8,483.7,350.9,476.3,350.9L476.3,350.9z M477.8,358.7c6.6,0,11.9,5.7,11.9,12.7s-5.3,12.7-11.9,12.7
				s-11.8-5.7-11.8-12.7S471.3,358.7,477.8,358.7z"/>
			<path id="path3024" class="st3" d="M210.5,391.3c-8.3,0-16-5.1-16-5.1l3.5-5.4c0,0,7.3,3.4,12.5,3.4c3.4,0,9-1.1,9.1-4.5
				c0.1-3.6-9.5-4.6-9.5-4.6s-14.3-0.2-14.3-12c0-7.4,7.1-12.1,16.3-12.1c5.3,0,15.2,4.6,15.2,4.6l-4,6.2c0,0-7.6-3.1-11.7-3.2
				c-3.4-0.1-7.5,1.5-7.5,4.5c0,8.1,23.8-0.6,23.8,15.7C227.9,389.4,218.2,391.3,210.5,391.3L210.5,391.3z"/>
			<path id="path3026" class="st3" d="M241.2,341v11.1h-7.1v8h7.1v19.1c0,0-0.6,12.9,13.3,12.9c3.8,0,11.4-2.8,11.4-2.8l-3.2-8.3
				c0,0-3,2.6-6.4,2.5c-6.4-0.2-6.2-4.3-6.2-4.3v-19.1h13.2v-8H250V341H241.2z"/>
			<path id="path3034" class="st3" d="M289.4,351.4c-13.1,0-19.6,10.8-19.6,20.1c0.1,9.6,6,20.4,20.3,20.4c6.2,0,14.8-5.4,14.8-5.4
				l-3.7-6.5c0,0-5.9,4.2-11.1,4.2c-10.4,0-11.1-10.2-11.1-10.2H307C307,374.1,309,351.4,289.4,351.4z M288.3,358.8c0.3,0,0.6,0,1,0
				c9.8,0,9.7,9.2,9.7,9.2h-19.8C279.2,368.1,278.7,359.4,288.3,358.8z"/>
			<path id="path3037" class="st3" d="M372.2,380l3.7,7.5c0,0-5.9,3.8-12.5,3.8c-13.7,0-21.4-10.3-21.4-20.1
				c0-15.4,12.1-19.9,20.3-19.9c7.4,0,13.9,4.3,13.9,4.3l-4.2,7.5c0,0-2.5-4-9.9-4c-7.4,0-11.3,6.4-11.3,12.4
				c0,6.8,4.5,12.5,11.4,12.5C367.6,384,372.2,380,372.2,380L372.2,380z"/>
		</g>
		<g id="g3064" transform="matrix(1.3613136,0,0,1.3613136,509.49268,379.29888)">
			<g id="text3066">
				<path id="path3078" class="st3" d="M3.2,4.1c-0.8,0-1.5,0.3-2.1,0.8c-0.5,0.5-0.8,1.2-0.8,2c0,0.8,0.3,1.5,0.8,2
					c0.5,0.5,1.2,0.8,2.1,0.8c0.8,0,1.5-0.3,2-0.8c0.5-0.5,0.8-1.2,0.8-2c0-0.8-0.3-1.5-0.8-2C4.7,4.4,4,4.1,3.2,4.1z M3.2,9.1
					c-0.6,0-1.2-0.2-1.6-0.6C1.2,8,1,7.5,1,6.9c0-0.6,0.2-1.1,0.6-1.6c0.4-0.4,0.9-0.6,1.6-0.6c0.6,0,1.1,0.2,1.5,0.6
					c0.4,0.4,0.6,0.9,0.6,1.6c0,0.6-0.2,1.1-0.6,1.6C4.3,8.9,3.8,9.1,3.2,9.1z M3.4,5.6H2.2v2.6h0.6v-1H3l0.8,1h0.7l-0.9-1
					c0.3,0,0.5-0.1,0.6-0.3c0.1-0.1,0.2-0.3,0.2-0.5c0-0.3-0.1-0.5-0.3-0.6C4,5.7,3.7,5.6,3.4,5.6z M3.4,6.1c0.1,0,0.3,0,0.4,0.1
					c0.1,0.1,0.1,0.1,0.1,0.3c0,0.1,0,0.2-0.1,0.3C3.6,6.7,3.5,6.8,3.4,6.8H2.7V6.1L3.4,6.1z"/>
			</g>
			<g id="text3068">
			</g>
		</g>
	</g>
</g>
</svg>
