<?xml version="1.0" encoding="utf-8"?>
<!-- Generator: Adobe Illustrator 21.1.0, SVG Export Plug-In . SVG Version: 6.00 Build 0)  -->
<svg version="1.1" id="Laag_2" xmlns="http://www.w3.org/2000/svg" xmlns:xlink="http://www.w3.org/1999/xlink" x="0px" y="0px"
	 viewBox="0 0 96.1 96.1" style="enable-background:new 0 0 96.1 96.1;" xml:space="preserve">
<style type="text/css">
	.st0{fill:#FFFFFF;}
</style>
<g>
	<path class="st0" d="M22.1,85l-0.7-2.4C35.2,78.8,47.1,71.4,55,61.9c7-8.5,10.2-18,8.6-25.6C60.4,21.7,42.5,21,42.3,21l0.1-2.5
		c0.2,0,5,0.2,10.4,2.3c7.2,2.9,11.8,8.1,13.2,14.9c1.8,8.4-1.5,18.5-9.1,27.7C48.7,73.4,36.3,81,22.1,85z"/>
	<path class="st0" d="M27.3,67.7c-0.3,0-0.5,0-0.8-0.1l-7.1-1.5c-1.1-0.2-2.1-1.1-2.3-2.3L16,58.6c-0.1-0.7,0-1.4,0.3-2l9.4-17.4
		l0.5-5.6c0-0.6,0.3-1.1,0.6-1.6l7.3-9.2l-5.2-8.5c-0.4-0.7-0.4-1.5,0-2.2c0.4-0.7,1.1-1.1,1.9-1.1c2.1,0,5.3,0.4,8.1,2.1
		c3.6,2.1,5.7,5.6,6.1,10.4l-2.4,0.2c-0.3-3.7-2.3-9.8-11.3-10.3L37,23l-8.3,10.6c-0.1,0.1-0.1,0.2-0.1,0.3l-0.5,6.1l-9.6,17.8
		c-0.1,0.1-0.1,0.2,0,0.3l1.1,5.3c0,0.2,0.2,0.4,0.4,0.4l7.1,1.5c0.6,0.1,1.2-0.2,1.4-0.8l1.6-4.3c0.3-0.7,0.7-1.2,1.4-1.6
		c1.5-0.9,5.9-3.3,13.3-7.2c8.3-4.4,7.7-8.9,7.7-8.9l2.4-0.4c0,0.2,1,6.2-9,11.5c-7.4,4-11.7,6.4-13.3,7.2c-0.1,0.1-0.2,0.2-0.3,0.3
		l-1.6,4.3C30.2,66.8,28.8,67.7,27.3,67.7z"/>
	<path class="st0" d="M58.8,84.8l-2.1-1.3c0.2-0.3,15.9-25.9,10.1-44.7c-2.2-7-7.2-12.2-14.8-15.6l1-2.3c8.3,3.6,13.8,9.4,16.2,17.1
		c2.6,8.4,1.6,18.8-2.8,31C63,78.1,59,84.6,58.8,84.8z"/>
	<path class="st0" d="M80.1,61.4l-2.4-0.2c0-0.1,0.5-7.3-2.6-15.7c-4.1-11.1-12.3-18.7-24.2-22.7l0.8-2.3
		c15.8,5.3,22.7,16.1,25.7,24.2C80.6,53.6,80.1,61,80.1,61.4z"/>
	<path class="st0" d="M51.2,69.4L48.8,69c1.7-9.9-2.3-16.9-2.3-17l2.1-1.2C48.8,51.2,53,58.7,51.2,69.4z"/>
</g>
<path class="st0" d="M20.6,53.3h-2.5V27.7c0-1.9,1.5-3.4,3.4-3.4h11.7v2.5H21.5c-0.5,0-0.9,0.4-0.9,0.9V53.3z"/>
<path class="st0" d="M76.8,85H21.5c-1.9,0-3.4-1.5-3.4-3.4V65h2.5v16.7c0,0.5,0.4,0.9,0.9,0.9h55.2c0.5,0,0.9-0.4,0.9-0.9v-54
	c0-0.5-0.4-0.9-0.9-0.9H59.5v-2.5h17.2c1.9,0,3.4,1.5,3.4,3.4v54C80.2,83.5,78.6,85,76.8,85z"/>
</svg>
