<?xml version="1.0" encoding="utf-8"?>
<!-- Generator: Adobe Illustrator 21.0.2, SVG Export Plug-In . SVG Version: 6.00 Build 0)  -->
<svg version="1.1" id="Layer_1" xmlns="http://www.w3.org/2000/svg" xmlns:xlink="http://www.w3.org/1999/xlink" x="0px" y="0px"
	 viewBox="0 0 100 100" style="enable-background:new 0 0 100 100;" xml:space="preserve">
<style type="text/css">
	.st0{fill:none;stroke:#FFFFFF;stroke-width:3;stroke-miterlimit:10;}
</style>
<g>
	<circle class="st0" cx="50" cy="50" r="40.1"/>
	<g>
		<path class="st0" d="M24.7,80.4c2.7-1.1,14.6-8.4,14.9-8.8c0.9-1.3,0.9-2.8,1-5.5c0-1,0.4-2-0.1-3.1c-0.5-1-4.3-4.6-4.9-10
			c-0.2-1.9-0.9-2-1.8-2.4c-0.7-0.3-0.8-6.4,0-7.2c1-1,1.4-0.8,1.6-2.1c0.6-3.6-0.1-4.4,0.1-10.9c0-0.9,0.6-2.9,2.2-4.8
			c1.8-2.1,4-2.8,5.9-3.4c2.4-0.8,3.7-0.8,6.4-0.7"/>
		<path class="st0" d="M75.5,80.9c-2.7-1.1-16-8.9-16.3-9.4c-0.9-1.3-0.9-2.8-1-5.5c0-1-0.4-2,0.1-3.1c0.5-1,4.3-4.6,4.9-10
			c0.2-1.9,0.9-2,1.8-2.4c0.7-0.3,0.8-6.4,0-7.2c-1-1-1.4-0.8-1.6-2.1c-0.6-3.6,0.1-4.4-0.1-10.9c0-0.9-0.6-2.9-2.2-4.8
			c-1.8-2.1-4-2.8-5.9-3.4c-2.4-0.8-3.7-0.7-6.4-0.7"/>
	</g>
</g>
</svg>
